<?xml version="1.0" encoding="utf-8"?>
<!-- Generator: Adobe Illustrator 15.0.2, SVG Export Plug-In . SVG Version: 6.00 Build 0)  -->
<!DOCTYPE svg PUBLIC "-//W3C//DTD SVG 1.1//EN" "http://www.w3.org/Graphics/SVG/1.1/DTD/svg11.dtd">
<svg version="1.1" id="Layer_1" xmlns="http://www.w3.org/2000/svg" xmlns:xlink="http://www.w3.org/1999/xlink" x="0px" y="0px"
	 width="90px" height="70px" viewBox="0 0 800 600" enable-background="new 0 0 800 600" xml:space="preserve">
<path fill="#333333" d="M373.543,104.758V80.574l38.208-10.368v24.186L373.543,104.758z M373.543,147.715l38.208-10.367v-23.854
	l-38.208,10.368V147.715z M411.752,156.452l-38.208,10.368v7.774h-32.416v17.682c0,13.914,11.017,25.188,24.604,25.188h54.136
	c13.588,0,24.604-11.273,24.604-25.188v-17.682h-32.72V156.452z M589.618,214.571c0,108.764-88.175,196.926-196.932,196.926
	c-108.755,0-196.93-88.162-196.93-196.926c0-108.763,88.175-196.934,196.93-196.934C501.443,17.637,589.618,105.808,589.618,214.571
	 M293.161,302.751l47.97,6.193c9.129,1.178,17.484-5.269,18.663-14.394c1.178-9.129-5.268-17.486-14.394-18.663l-47.972-6.194
	c-9.127-1.177-17.483,5.267-18.663,14.396C277.589,293.216,284.034,301.572,293.161,302.751 M360.942,351.204h-6.552
	c-7.997,0-14.48,6.33-14.48,14.144c0,7.809,5.48,11.941,16.36,14.836c1.561,0.414,3.117,0.799,4.672,1.16V351.204z M403.977,351.204
	H392.75h-0.103h-11.382v33.364c3.798,0.331,7.593,0.531,11.382,0.565v0.001h0.051h0.052v-0.001
	c3.738-0.034,7.478-0.229,11.226-0.553V351.204z M445.489,365.348c0-7.813-6.483-14.144-14.479-14.144h-6.711v30.173
	c1.607-0.37,3.218-0.767,4.831-1.193C440.008,377.289,445.489,373.156,445.489,365.348 M506.325,283.889
	c-1.179-9.13-9.533-15.574-18.663-14.397l-47.969,6.194c-9.129,1.177-15.573,9.533-14.396,18.663
	c1.178,9.125,9.534,15.57,18.663,14.395l47.971-6.195C501.06,301.369,507.505,293.014,506.325,283.889 M532.874,116.167
	c-27.551-39.175-71.073-66.283-121.122-71.828v6.764l-38.208,10.367V44.348c-49.842,5.546-93.205,32.476-120.754,71.411h25.858
	c25.417,0,46.02,20.604,46.02,46.02v19.523h0.039v7.143c0,25.414,20.603,46.019,46.019,46.019h43.925
	c25.144,0,45.545-20.175,45.979-45.216v-27.061c0-25.417,20.602-46.019,46.018-46.019H532.874z"/>
<text transform="matrix(1.1032 0 0 1 89.9648 556.1553)" display="none" fill="#333333" font-family="'NewsGothicStd'" font-size="105.5514" letter-spacing="0.906">staticboards</text>
<g>
	<path fill="#333333" d="M134.211,510.876c-3.609-4.854-7.917-7.704-14.671-7.704c-5.938,0-11.527,2.744-11.527,8.654
		c0,14.249,33.884,8.021,33.884,27.653c0,11.398-8.966,18.364-21.075,18.364c-10.363,0-18.747-4.116-23.987-12.243l7.219-4.116
		c3.493,6.017,9.083,9.394,16.768,9.394c6.637,0,12.575-3.271,12.575-9.921c0-14.671-33.884-7.705-33.884-28.603
		c0-10.027,9.082-16.148,19.678-16.148c8.966,0,16.418,3.377,21.425,10.132L134.211,510.876z"/>
	<path fill="#333333" d="M168.214,497.895h14.555v6.966h-14.555v36.624c0,5.699-0.117,9.394,7.335,9.394
		c2.562,0,5.007-0.211,7.219-0.738v6.016c-2.911,0.95-5.938,1.688-9.082,1.688c-15.37,0-14.555-9.394-14.555-20.054v-32.93h-9.781
		v-6.966h9.781v-18.893h9.083V497.895z"/>
	<path fill="#333333" d="M227.717,556.155l-0.932-7.388c-5.24,4.644-11.062,9.076-18.63,9.076c-9.897,0-17.815-7.493-17.815-16.676
		c0-16.676,19.329-20.265,33.535-23.748l2.911-0.738v-3.272c0-6.649-5.007-10.237-12.226-10.237c-7.103,0-11.994,4.222-15.72,9.183
		l-6.404-4.328c5.356-6.966,12.343-11.82,22.124-11.82c8.733,0,21.308,4.854,21.308,18.153v28.919
		c0.117,4.328-0.116,8.761,1.747,12.877H227.717z M223.175,524.386c-8.616,2.322-24.336,5.489-24.336,15.938
		c0,4.855,4.192,9.71,9.665,9.71c7.219,0,13.856-4.538,18.281-9.499v-17.098L223.175,524.386z"/>
	<path fill="#333333" d="M264.049,497.895h14.555v6.966h-14.555v36.624c0,5.699-0.117,9.394,7.335,9.394
		c2.562,0,5.007-0.211,7.219-0.738v6.016c-2.911,0.95-5.938,1.688-9.082,1.688c-15.37,0-14.555-9.394-14.555-20.054v-32.93h-9.781
		v-6.966h9.781v-18.893h9.083V497.895z"/>
	<path fill="#333333" d="M297.003,483.118h-9.083v-9.077h9.083V483.118z M297.003,556.155h-9.083v-58.261h9.083V556.155z"/>
	<path fill="#333333" d="M349.401,514.148c-2.212-5.383-5.706-11.188-12.925-10.977c-13.973,0-16.651,13.932-16.651,23.853
		c0,9.922,2.678,23.854,16.651,23.854c7.802-0.316,12.226-6.016,15.021-11.716l7.335,2.956
		c-3.726,8.865-11.993,15.726-22.356,15.726c-14.322,0-25.733-8.971-25.733-30.819c0-21.848,11.411-30.818,25.733-30.818
		c10.596,0,17.117,6.016,20.61,14.776L349.401,514.148z"/>
	<path fill="#333333" d="M381.658,556.155h-9.083v-82.114h9.083v29.869c4.192-4.011,9.897-7.704,16.068-7.704
		c11.062,0,23.871,9.076,23.871,31.979c0,22.376-14.788,29.658-23.521,29.658c-7.103,0-12.11-3.482-16.418-8.338V556.155z
		 M381.658,539.796c2.562,4.961,8.733,10.871,15.137,10.871c6.287,0,15.253-5.594,15.253-22.692c0-8.76-2.678-24.592-15.37-24.592
		c-6.986,0-12.226,4.327-15.021,9.394V539.796z"/>
	<path fill="#333333" d="M433.593,527.024c0-21.848,11.411-30.818,25.733-30.818c14.321,0,25.732,8.971,25.732,30.818
		c0,21.849-11.411,30.819-25.732,30.819C445.004,557.844,433.593,548.873,433.593,527.024z M475.977,527.024
		c0-9.921-2.678-23.853-16.65-23.853c-13.974,0-16.651,13.932-16.651,23.853c0,9.922,2.678,23.854,16.651,23.854
		C473.299,550.878,475.977,536.946,475.977,527.024z"/>
	<path fill="#333333" d="M534.433,556.155l-0.932-7.388c-5.239,4.644-11.062,9.076-18.63,9.076c-9.897,0-17.815-7.493-17.815-16.676
		c0-16.676,19.329-20.265,33.535-23.748l2.91-0.738v-3.272c0-6.649-5.007-10.237-12.226-10.237c-7.104,0-11.993,4.222-15.72,9.183
		l-6.404-4.328c5.356-6.966,12.343-11.82,22.124-11.82c8.732,0,21.309,4.854,21.309,18.153v28.919
		c0.116,4.328-0.117,8.761,1.746,12.877H534.433z M529.892,524.386c-8.616,2.322-24.336,5.489-24.336,15.938
		c0,4.855,4.192,9.71,9.665,9.71c7.219,0,13.855-4.538,18.28-9.499v-17.098L529.892,524.386z"/>
	<path fill="#333333" d="M567.272,510.454h0.232c3.61-6.966,8.268-13.404,17.815-13.404h3.493v7.494
		c-11.877-1.478-18.048,10.132-21.541,18.576v33.035h-9.082v-58.261h9.082V510.454z"/>
	<path fill="#333333" d="M635.276,474.041h9.082v82.114h-9.082v-6.649c-4.308,4.855-9.315,8.338-16.418,8.338
		c-8.732,0-23.521-7.282-23.521-29.658c0-22.903,12.809-31.979,23.87-31.979c6.171,0,11.877,3.693,16.068,7.704V474.041z
		 M635.276,512.776c-2.794-5.066-8.034-9.394-15.021-9.394c-12.692,0-15.37,15.832-15.37,24.592
		c0,17.099,8.966,22.692,15.254,22.692c6.404,0,12.575-5.91,15.137-10.871V512.776z"/>
	<path fill="#333333" d="M695.595,510.876c-3.609-4.854-7.918-7.704-14.671-7.704c-5.938,0-11.527,2.744-11.527,8.654
		c0,14.249,33.884,8.021,33.884,27.653c0,11.398-8.966,18.364-21.076,18.364c-10.363,0-18.746-4.116-23.986-12.243l7.22-4.116
		c3.493,6.017,9.082,9.394,16.767,9.394c6.638,0,12.576-3.271,12.576-9.921c0-14.671-33.885-7.705-33.885-28.603
		c0-10.027,9.083-16.148,19.679-16.148c8.966,0,16.418,3.377,21.425,10.132L695.595,510.876z"/>
</g>
</svg>
