<?xml version="1.0" encoding="utf-8"?>
<!-- Generator: Adobe Illustrator 22.0.1, SVG Export Plug-In . SVG Version: 6.00 Build 0)  -->
<svg version="1.1" id="Capa_1" xmlns="http://www.w3.org/2000/svg" xmlns:xlink="http://www.w3.org/1999/xlink" x="0px" y="0px"
	 viewBox="0 0 1761.9 248.1" style="enable-background:new 0 0 1761.9 248.1;" xml:space="preserve">
<style type="text/css">
	.st0{fill:#005DB2;}
	.st1{fill:#FF9E00;}
</style>
<g>
	<path class="st0" d="M75.8,113.8v74.9c0,8,1.6,13.3,4.9,15.9c5.1,4,14.2,6,27.3,6c19.1,0,36.7-4.1,52.9-12.2
		c6.2-3.2,11.1-4.7,14.6-4.7c4.9,0,9.1,1.8,12.7,5.5c3.6,3.6,5.4,8.1,5.4,13.3c0,4.9-1.9,9.1-5.8,12.6c-6,5.7-17.7,11-35.3,15.8
		c-17.6,4.8-32.4,7.2-44.4,7.2c-23.2,0-40.6-5-52.2-15c-11.6-10-17.4-22.3-17.4-36.9v-82.2H25c-9,0-15.4-1.7-19.2-5.2
		C1.9,105.1,0,100.6,0,95c0-5.5,1.9-9.9,5.7-13.4C9.6,78.1,16,76.4,25,76.4h13.5V42.7c0-9,1.7-15.4,5.2-19.2c3.5-3.8,8-5.7,13.6-5.7
		c5.5,0,9.9,1.9,13.4,5.7c3.5,3.8,5.2,10.2,5.2,19.2v33.7h69.1c9,0,15.4,1.7,19.2,5.2c3.8,3.5,5.7,8,5.7,13.6
		c0,5.5-1.9,9.9-5.7,13.4c-3.8,3.5-10.2,5.2-19.2,5.2H75.8z"/>
	<path class="st0" d="M362.4,117c11.1,7.5,19.3,16.3,24.8,26.2c5.5,9.9,8.2,21,8.2,33.3c0,13.2-3.6,25.5-10.8,36.7
		c-7.2,11.2-17.7,19.8-31.4,25.5c-13.7,5.8-31.7,8.7-54,8.7c-28.9,0-50.7-4.5-65.3-13.5c-8.1-5.1-12.2-11.2-12.2-18.2
		c0-5.3,1.8-9.9,5.4-13.6c3.6-3.7,7.9-5.6,13-5.6c3.5,0,7.2,1.2,10.9,3.6c5.3,3.6,10.4,6.1,15.1,7.3c7.3,1.7,17.3,2.6,30.1,2.6
		c21.8,0,37.5-2.8,47.2-8.5c9.7-5.7,14.6-13.6,14.6-24c0-7.7-2.8-15-8.5-22.1s-13.2-12.6-22.7-16.5c-5.5-2.2-14.7-3.7-27.7-4.6
		c-6.2-0.4-11-2.3-14.3-5.7c-3.3-3.5-5-7.7-5-12.9c0-5.3,1.8-9.8,5.5-13.5c3.6-3.6,8.3-5.5,13.9-5.5c12.4,0,19-0.1,19.9-0.2
		c4.9-0.5,9.7-2.1,14.6-4.7c4.9-2.7,8.8-6.3,11.8-11c3-4.7,4.5-9.5,4.5-14.5c0-7.9-3.5-14.7-10.5-20.5c-7-5.8-17.5-8.7-31.4-8.7
		c-18,0-31.7,5.2-41.2,15.7c-2.8,3-5,5-6.7,5.8c-2.6,1.3-5.4,2-8.6,2c-5.1,0-9.5-1.8-13.1-5.5c-3.6-3.6-5.5-8.1-5.5-13.5
		c0-8.4,5.6-16.5,16.8-24.4C265.8,5.8,286.2,0,310.6,0c23.1,0,41.6,6.6,55.6,19.7c14,13.1,21,28.9,21,47.4c0,9.6-2.1,18.6-6.2,26.9
		C376.9,102.3,370.7,110,362.4,117z"/>
	<path class="st0" d="M591.4,83.1c4.5-4.3,9.1-6.4,13.9-6.4c5.3,0,9.8,1.9,13.2,5.7c3.5,3.8,5.2,10.2,5.2,19.1v24.1
		c0,9-1.7,15.4-5.2,19.1c-3.5,3.8-8,5.7-13.6,5.7c-5.1,0-9.4-1.5-12.9-4.4c-2.6-2.2-4.6-6.7-6-13.4c-1.5-6.7-5-11.8-10.6-15
		c-9.8-5.8-22.4-8.7-37.7-8.7c-17.6,0-31.8,5.2-42.4,15.5c-10.6,10.3-16,23.4-16,39.2c0,14.6,5.1,26.1,15.3,34.5
		c10.2,8.4,27.2,12.7,50.9,12.7c15.6,0,28.3-1.6,38.1-4.7c5.8-1.9,11.4-5.3,16.6-9.9c5.2-4.7,10-7,14.2-7c5.1,0,9.5,1.9,13.2,5.7
		c3.7,3.8,5.6,8.2,5.6,13.3c0,8.3-5.7,16.1-17,23.5c-16.8,11.1-41.3,16.6-73.7,16.6c-29,0-51.7-6-67.8-18
		c-21.9-16.2-32.8-38.3-32.8-66.4c0-26.6,8.9-48.6,26.6-66.1c17.7-17.4,40.9-26.2,69.5-26.2c10.3,0,19.9,1,28.8,2.9
		C575.6,76.3,583.8,79.2,591.4,83.1z"/>
	<path class="st0" d="M718.6,5.5v79.7c7.8-4.6,15.6-8,23.6-10.3c8-2.2,16-3.4,24.2-3.4c12.9,0,24.4,2.2,34.5,6.6
		c10.1,4.4,18.4,11.3,25.1,20.7c6.6,9.4,9.9,21.3,9.9,35.6v70.2c9.5,0,15.7,0.9,18.6,2.7c5.8,3.8,8.8,9.1,8.8,16
		c0,5.5-1.9,9.9-5.7,13.4c-3.8,3.5-10.1,5.2-19.1,5.2h-42.7c-8.9,0-15.2-1.7-19-5.2c-3.8-3.5-5.7-8-5.7-13.6
		c0-6.8,2.9-12.1,8.8-15.9c3-1.9,9.2-2.9,18.6-2.7v-67.6c0-9.6-2.2-16.3-6.6-20.2c-5.7-5.2-14.2-7.8-25.3-7.8
		c-8.3,0-15.6,1.6-22,4.8c-6.4,3.2-15,10.2-25.8,20.9v70c9.6,0,15.8,0.9,18.6,2.7c6,3.8,8.9,9.1,8.9,16c0,5.5-1.9,9.9-5.7,13.4
		c-3.8,3.5-10.2,5.2-19.2,5.2h-42.5c-9,0-15.4-1.7-19.2-5.2c-3.8-3.5-5.7-8-5.7-13.6c0-6.8,3-12.1,8.9-15.9
		c2.9-1.9,9.1-2.9,18.6-2.7V42.8h-6.4c-9,0-15.4-1.7-19.2-5.2c-3.8-3.5-5.7-8-5.7-13.6c0-5.5,1.9-9.9,5.7-13.4
		c3.8-3.5,10.2-5.2,19.2-5.2H718.6z"/>
	<path class="st1" d="M980.9,113.8v90.8h53.2c9,0,15.4,1.7,19.2,5.2c3.8,3.5,5.7,8,5.7,13.6c0,5.5-1.9,9.9-5.7,13.4
		c-3.8,3.5-10.2,5.2-19.2,5.2H921.3c-9,0-15.4-1.7-19.2-5.2c-3.8-3.5-5.7-8-5.7-13.6c0-5.5,1.9-9.9,5.7-13.4
		c3.8-3.5,10.2-5.2,19.2-5.2h22.2v-90.8h-17.9c-9,0-15.4-1.7-19.2-5.2c-3.8-3.5-5.7-8-5.7-13.6c0-5.5,1.9-9.9,5.7-13.4
		c3.8-3.5,10.2-5.2,19.2-5.2h17.9V62.2c0-16.3,6.1-29.8,18.3-40.6c12.2-10.8,29.9-16.1,53.1-16.1c10.3,0,22.3,0.9,35.8,2.8
		c13.6,1.9,22.2,4.5,26.1,7.9c3.8,3.4,5.7,7.8,5.7,13.1c0,5.7-1.7,10.4-5.1,13.9c-3.4,3.6-7.6,5.4-12.6,5.4c-2.3,0-5.8-0.4-10.4-1.3
		c-15.4-3-29.1-4.6-41-4.6c-12.4,0-20.9,1.9-25.6,5.6c-4.7,3.7-7,8.3-7,13.8v14.2h57.6c9,0,15.4,1.7,19.2,5.2
		c3.8,3.5,5.7,8,5.7,13.6c0,5.5-1.9,9.9-5.7,13.4c-3.8,3.5-10.2,5.2-19.2,5.2H980.9z"/>
	<path class="st1" d="M1299.1,178.1h-153.3c3.9,9.7,10.8,17.6,20.7,23.5c9.9,6,23.3,8.9,40.2,8.9c13.9,0,32.3-3,55.2-8.9
		c9.5-2.4,16-3.6,19.7-3.6c5,0,9.2,1.8,12.6,5.3c3.4,3.5,5.1,8,5.1,13.3c0,4.9-1.8,9-5.5,12.4c-4.9,4.5-16.7,8.8-35.5,12.9
		c-18.8,4.1-36.9,6.1-54.3,6.1c-29.9,0-53.8-8.4-71.7-25.3c-17.9-16.9-26.9-37.7-26.9-62.3c0-26.3,9.7-47.6,29.1-64.1
		c19.4-16.5,41.7-24.7,67-24.7c15.2,0,29.1,2.7,41.8,8c12.7,5.3,22.2,11.1,28.4,17.3c8.8,9,16,20.1,21.7,33.4
		c3.9,9.2,5.8,19.9,5.8,32.1V178.1z M1257.7,140.7c-5.7-10.7-13.2-18.7-22.4-24c-9.2-5.3-20.2-7.9-33-7.9c-12.6,0-23.6,2.6-32.8,7.9
		s-16.8,13.3-22.6,24H1257.7z"/>
	<path class="st1" d="M1469.7,120.1c-6.1-3.8-12.5-6.6-19.1-8.5c-6.7-1.9-13.7-2.8-21-2.8c-14.5,0-25.9,2.4-34.5,7.1
		c-3.8,2.1-5.7,4.3-5.7,6.7c0,2.8,2.6,5.5,7.7,8.2c3.9,1.9,12.6,3.8,26.1,5.7c24.8,3.4,42,6.8,51.8,10.2
		c12.8,4.5,22.6,11.2,29.5,20.1c6.9,8.9,10.4,18.2,10.4,28.1c0,13.4-5.9,24.6-17.7,33.5c-16.9,13-38.8,19.5-65.8,19.5
		c-10.8,0-20.8-0.9-30-2.8c-9.2-1.9-17.6-4.6-25.3-8.3c-1.8,1.6-3.8,2.8-5.8,3.6c-2.1,0.9-4.2,1.3-6.4,1.3c-5.8,0-10.5-1.9-13.9-5.7
		c-3.5-3.8-5.2-10.2-5.2-19.2v-12.6c0-9,1.7-15.4,5.2-19.2c3.5-3.8,8-5.7,13.6-5.7c4.5,0,8.3,1.2,11.3,3.7c3,2.5,5.4,6.8,7.1,12.9
		c5.7,4.9,12.6,8.5,20.6,11c8,2.5,17.3,3.7,27.7,3.7c17.1,0,30.4-2.7,39.9-8c4.5-2.7,6.7-5.5,6.7-8.4c0-4.9-3.2-8.9-9.7-12
		c-6.4-3.2-19.8-5.8-39.9-8c-30-3.2-50.1-9.2-60.2-18.2c-10.1-8.9-15.1-19.8-15.1-32.8c0-13.4,5.7-24.5,17-33.4
		c15.3-12.2,35.4-18.2,60.2-18.2c8.6,0,16.9,0.8,24.9,2.5c8,1.6,15.6,4.2,22.9,7.6c2.3-1.7,4.5-3,6.5-3.8c2-0.8,3.9-1.3,5.6-1.3
		c5.1,0,9.4,1.9,12.8,5.7c3.4,3.8,5.1,10.2,5.1,19.2v9.1c0,8.1-1,13.7-2.9,16.6c-3.9,5.6-9.2,8.4-15.9,8.4c-4.5,0-8.4-1.4-11.8-4.2
		C1472.8,128.5,1470.7,124.8,1469.7,120.1z"/>
	<path class="st1" d="M1644.1,113.8v74.9c0,8,1.6,13.3,4.9,15.9c5.1,4,14.2,6,27.3,6c19.1,0,36.7-4.1,52.9-12.2
		c6.2-3.2,11.1-4.7,14.6-4.7c4.9,0,9.1,1.8,12.7,5.5c3.6,3.6,5.4,8.1,5.4,13.3c0,4.9-1.9,9.1-5.8,12.6c-6,5.7-17.7,11-35.3,15.8
		c-17.6,4.8-32.4,7.2-44.4,7.2c-23.2,0-40.6-5-52.2-15c-11.6-10-17.4-22.3-17.4-36.9v-82.2h-13.5c-9,0-15.4-1.7-19.2-5.2
		c-3.8-3.5-5.7-8-5.7-13.6c0-5.5,1.9-9.9,5.7-13.4c3.8-3.5,10.2-5.2,19.2-5.2h13.5V42.7c0-9,1.7-15.4,5.2-19.2
		c3.5-3.8,8-5.7,13.6-5.7c5.5,0,9.9,1.9,13.4,5.7c3.5,3.8,5.2,10.2,5.2,19.2v33.7h69.1c9,0,15.4,1.7,19.2,5.2
		c3.8,3.5,5.7,8,5.7,13.6c0,5.5-1.9,9.9-5.7,13.4c-3.8,3.5-10.2,5.2-19.2,5.2H1644.1z"/>
</g>
</svg>
